STARTFONT 2.1
FONT -WRI-Mathematica2Mono-Bold-R-Normal--16-160-75-75-M-110-Adobe-FontSpecific
SIZE 16 75 75
FONTBOUNDINGBOX 36 100 -3 -65
STARTPROPERTIES 16
FOUNDRY "WRI"
FAMILY_NAME "Mathematica2Mono"
WEIGHT_NAME "Bold"
SLANT "R"
SETWIDTH_NAME "Normal"
PIXEL_SIZE 16
POINT_SIZE 160
RESOLUTION_X 75
RESOLUTION_Y 75
SPACING "M"
AVERAGE_WIDTH 110
CHARSET_REGISTRY "Adobe"
CHARSET_ENCODING "FontSpecific"
FONT_DESCENT 65
FONT_ASCENT 35
DEFAULT_CHAR 32
ENDPROPERTIES
CHARS 223
STARTCHAR space
ENCODING 32
SWIDTH 263 0
DWIDTH 4 0
BBX 0 0 0 0
BITMAP
ENDCHAR
STARTCHAR Radical1Extens
ENCODING 33
SWIDTH 260 0
DWIDTH 4 0
BBX 6 2 -1 3
BITMAP
fc
fc
ENDCHAR
STARTCHAR Radical2
ENCODING 34
SWIDTH 1041 0
DWIDTH 17 0
BBX 16 26 1 -15
BITMAP
000f
000f
000c
000c
000c
0018
0018
0018
0018
0018
0030
0030
0030
1030
7830
f860
9c60
0c60
0e60
06e0
07c0
03c0
01c0
01c0
00c0
0080
ENDCHAR
STARTCHAR Radical2Extens
ENCODING 35
SWIDTH 260 0
DWIDTH 4 0
BBX 6 2 -1 9
BITMAP
fc
fc
ENDCHAR
STARTCHAR Radical3
ENCODING 36
SWIDTH 1183 0
DWIDTH 19 0
BBX 18 45 1 -20
BITMAP
0003c0
0003c0
000300
000300
000600
000600
000600
000600
000600
000600
000600
000c00
000c00
000c00
000c00
000c00
000c00
001800
001800
001800
001800
001800
001800
001800
003000
003000
003000
103000
783000
f83000
d86000
1c6000
0c6000
0c6000
066000
066000
076000
03c000
03c000
01c000
01c000
01c000
00c000
008000
008000
ENDCHAR
STARTCHAR Radical3Extens
ENCODING 37
SWIDTH 260 0
DWIDTH 4 0
BBX 6 2 -1 23
BITMAP
fc
fc
ENDCHAR
STARTCHAR Radical4
ENCODING 38
SWIDTH 1214 0
DWIDTH 19 0
BBX 18 61 1 -27
BITMAP
0003c0
0003c0
000300
000300
000300
000300
000200
000600
000600
000600
000600
000600
000600
000600
000600
000600
000600
000600
000c00
000c00
000c00
000c00
000c00
000c00
000c00
000c00
000c00
000c00
000c00
000c00
001800
001800
001800
001800
001800
001800
101800
781800
f81800
d81800
0c1800
0c3800
0c3000
063000
063000
063000
033000
033000
033000
01b000
01b000
01b000
00f000
00e000
00e000
006000
006000
006000
002000
002000
002000
ENDCHAR
STARTCHAR Radical4Extens
ENCODING 39
SWIDTH 260 0
DWIDTH 4 0
BBX 6 2 -1 32
BITMAP
fc
fc
ENDCHAR
STARTCHAR Radical5
ENCODING 40
SWIDTH 1143 0
DWIDTH 18 0
BBX 14 65 1 -31
BITMAP
000c
000c
000c
000c
000c
000c
000c
000c
000c
000c
000c
000c
000c
000c
000c
000c
000c
000c
000c
000c
000c
000c
000c
000c
000c
000c
000c
000c
000c
000c
000c
000c
000c
000c
000c
000c
180c
780c
fc0c
cc0c
0c0c
060c
060c
060c
030c
030c
038c
018c
018c
00cc
00cc
00ec
006c
006c
003c
003c
003c
001c
001c
001c
000c
000c
0004
0004
0004
ENDCHAR
STARTCHAR Radical5VertExtens
ENCODING 41
SWIDTH 1143 0
DWIDTH 18 0
BBX 2 5 13 0
BITMAP
c0
c0
c0
c0
c0
ENDCHAR
STARTCHAR Radical5Top
ENCODING 42
SWIDTH 1143 0
DWIDTH 18 0
BBX 6 5 13 0
BITMAP
fc
fc
c0
c0
c0
ENDCHAR
STARTCHAR Radical5Extens
ENCODING 43
SWIDTH 260 0
DWIDTH 4 0
BBX 6 2 -1 3
BITMAP
fc
fc
ENDCHAR
STARTCHAR FixedFreeRadical1
ENCODING 44
SWIDTH 918 0
DWIDTH 15 0
BBX 13 18 1 -13
BITMAP
0018
0038
0030
0030
0030
0060
0060
1060
78c0
f8c0
dcc0
0cc0
0780
0780
0380
0300
0100
0100
ENDCHAR
STARTCHAR FixedFreeRadical2
ENCODING 45
SWIDTH 1041 0
DWIDTH 17 0
BBX 15 26 1 -15
BITMAP
0006
0006
000c
000c
000c
000c
0018
0018
0018
0018
0018
0030
0030
1030
7830
f860
dc60
0c60
0e60
06e0
03c0
03c0
01c0
01c0
0080
0080
ENDCHAR
STARTCHAR FixedFreeRadical3
ENCODING 46
SWIDTH 1182 0
DWIDTH 19 0
BBX 17 45 1 -20
BITMAP
000180
000180
000180
000300
000300
000300
000300
000300
000300
000300
000600
000600
000600
000600
000600
000600
000c00
000c00
000c00
000c00
000c00
000c00
000c00
001800
001800
001800
001800
101800
781800
f83800
9c3000
0c3000
0c3000
063000
063000
033000
036000
03e000
01e000
01e000
00e000
00e000
006000
004000
004000
ENDCHAR
STARTCHAR FixedFreeRadical4
ENCODING 47
SWIDTH 1214 0
DWIDTH 19 0
BBX 16 61 1 -27
BITMAP
0003
0003
0003
0003
0003
0003
0006
0006
0006
0006
0006
0006
0006
0006
0006
0006
0006
0006
000c
000c
000c
000c
000c
000c
000c
000c
000c
000c
000c
001c
0018
0018
0018
0018
0018
0018
1018
7818
f818
9818
0c18
0c30
0c30
0630
0630
0630
0330
0330
0330
01b0
01b0
01b0
00f0
00e0
00e0
0060
0060
0060
0020
0020
0020
ENDCHAR
STARTCHAR TexRad1
ENCODING 48
SWIDTH 918 0
DWIDTH 15 0
BBX 15 18 1 -17
BITMAP
001e
001e
0018
0030
0030
0030
1060
7860
f860
dcc0
0cc0
0ec0
0780
0780
0380
0300
0100
0100
ENDCHAR
STARTCHAR TexRad2
ENCODING 49
SWIDTH 1041 0
DWIDTH 17 0
BBX 16 25 1 -24
BITMAP
000f
000f
000c
000c
0018
0018
0018
0018
0018
0030
0030
0030
1030
7830
f860
9c60
0c60
0e60
0660
03c0
03c0
01c0
01c0
00c0
0080
ENDCHAR
STARTCHAR TexRad3
ENCODING 50
SWIDTH 1183 0
DWIDTH 19 0
BBX 18 45 1 -44
BITMAP
0003c0
0003c0
000300
000300
000300
000600
000600
000600
000600
000600
000600
000600
000c00
000c00
000c00
000c00
000c00
000c00
000c00
001800
001800
001800
001800
001800
001800
001800
103000
783000
f83000
d83000
0c3000
0c3000
0e3000
063000
066000
036000
036000
036000
01e000
01e000
00e000
00c000
00c000
004000
004000
ENDCHAR
STARTCHAR TexRad4
ENCODING 51
SWIDTH 1214 0
DWIDTH 19 0
BBX 18 61 1 -60
BITMAP
0003c0
0003c0
000300
000300
000300
000300
000300
000600
000600
000600
000600
000600
000600
000600
000600
000600
000600
000600
000600
000400
000c00
000c00
000c00
000c00
000c00
000c00
000c00
000c00
000c00
000c00
000c00
000c00
001800
001800
001800
001800
101800
781800
f81800
d81800
0c1800
0c1800
0c1800
061800
063000
073000
033000
033000
03b000
01b000
01b000
01f000
00f000
00f000
00f000
007000
006000
006000
002000
002000
002000
ENDCHAR
STARTCHAR TexRad5
ENCODING 52
SWIDTH 1143 0
DWIDTH 18 0
BBX 14 66 1 -65
BITMAP
0008
0008
0008
0008
0008
0008
0008
0008
0008
0008
0008
0008
0008
0008
0008
0008
0008
0008
0008
0008
0008
0008
0008
0008
0008
0008
0008
0008
0008
0008
0008
0008
0008
0008
0008
0008
1808
7808
c808
0c08
0c08
0408
0608
0608
0208
0308
0308
0188
0188
0188
00c8
00c8
00c8
0068
0068
0068
0038
0038
0038
0018
0018
0018
0008
0008
0008
0004
ENDCHAR
STARTCHAR TexRad5VertExt
ENCODING 53
SWIDTH 1143 0
DWIDTH 18 0
BBX 2 5 13 -4
BITMAP
c0
c0
c0
c0
c0
ENDCHAR
STARTCHAR TexRad5Top
ENCODING 54
SWIDTH 1143 0
DWIDTH 18 0
BBX 6 5 13 -4
BITMAP
fc
fc
c0
c0
c0
ENDCHAR
STARTCHAR TexRadExtens
ENCODING 55
SWIDTH 255 0
DWIDTH 4 0
BBX 6 2 -1 -1
BITMAP
fc
fc
ENDCHAR
STARTCHAR LBrace1
ENCODING 56
SWIDTH 600 0
DWIDTH 10 0
BBX 5 13 3 -3
BITMAP
38
78
60
60
60
60
e0
e0
60
60
60
78
38
ENDCHAR
STARTCHAR LBrace2
ENCODING 57
SWIDTH 600 0
DWIDTH 10 0
BBX 6 21 2 -7
BITMAP
1c
3c
30
30
30
30
30
30
30
30
e0
e0
30
30
30
30
30
30
30
3c
1c
ENDCHAR
STARTCHAR LBrace3
ENCODING 58
SWIDTH 600 0
DWIDTH 10 0
BBX 7 27 2 -10
BITMAP
0e
1e
38
30
30
30
30
30
30
30
30
30
70
e0
e0
70
30
30
30
30
30
30
30
30
38
1e
0e
ENDCHAR
STARTCHAR LBrace4
ENCODING 59
SWIDTH 600 0
DWIDTH 10 0
BBX 8 33 1 -13
BITMAP
07
0f
1c
18
18
18
18
18
18
18
18
18
18
18
18
30
e0
e0
30
18
18
18
18
18
18
18
18
18
18
18
1c
0f
07
ENDCHAR
STARTCHAR RBrace1
ENCODING 60
SWIDTH 600 0
DWIDTH 10 0
BBX 5 13 2 -3
BITMAP
e0
f0
30
30
30
30
38
38
30
30
30
f0
e0
ENDCHAR
STARTCHAR RBrace2
ENCODING 61
SWIDTH 600 0
DWIDTH 10 0
BBX 6 21 2 -7
BITMAP
e0
f0
30
30
30
30
30
30
30
30
1c
1c
30
30
30
30
30
30
30
f0
e0
ENDCHAR
STARTCHAR RBrace3
ENCODING 62
SWIDTH 600 0
DWIDTH 10 0
BBX 7 27 1 -10
BITMAP
e0
f0
38
18
18
18
18
18
18
18
18
18
1c
0e
0e
1c
18
18
18
18
18
18
18
18
38
f0
e0
ENDCHAR
STARTCHAR RBrace4
ENCODING 63
SWIDTH 600 0
DWIDTH 10 0
BBX 8 33 1 -13
BITMAP
e0
f0
38
18
18
18
18
18
18
18
18
18
18
18
1c
0c
07
07
0c
18
18
18
18
18
18
18
18
18
18
18
38
f0
e0
ENDCHAR
STARTCHAR LBracket1
ENCODING 64
SWIDTH 600 0
DWIDTH 10 0
BBX 3 13 4 -3
BITMAP
e0
e0
c0
c0
c0
c0
c0
c0
c0
c0
c0
e0
e0
ENDCHAR
STARTCHAR LBracket2
ENCODING 65
SWIDTH 600 0
DWIDTH 10 0
BBX 4 21 4 -7
BITMAP
f0
f0
c0
c0
c0
c0
c0
c0
c0
c0
c0
c0
c0
c0
c0
c0
c0
c0
c0
f0
f0
ENDCHAR
STARTCHAR LBracket3
ENCODING 66
SWIDTH 600 0
DWIDTH 10 0
BBX 4 27 4 -10
BITMAP
f0
f0
c0
c0
c0
c0
c0
c0
c0
c0
c0
c0
c0
c0
c0
c0
c0
c0
c0
c0
c0
c0
c0
c0
c0
f0
f0
ENDCHAR
STARTCHAR LBracket4
ENCODING 67
SWIDTH 600 0
DWIDTH 10 0
BBX 4 33 4 -13
BITMAP
f0
f0
c0
c0
c0
c0
c0
c0
c0
c0
c0
c0
c0
c0
c0
c0
c0
c0
c0
c0
c0
c0
c0
c0
c0
c0
c0
c0
c0
c0
c0
f0
f0
ENDCHAR
STARTCHAR RBracket1
ENCODING 68
SWIDTH 600 0
DWIDTH 10 0
BBX 3 13 3 -3
BITMAP
e0
e0
60
60
60
60
60
60
60
60
60
e0
e0
ENDCHAR
STARTCHAR RBracket2
ENCODING 69
SWIDTH 600 0
DWIDTH 10 0
BBX 4 21 2 -7
BITMAP
f0
f0
30
30
30
30
30
30
30
30
30
30
30
30
30
30
30
30
30
f0
f0
ENDCHAR
STARTCHAR RBracket3
ENCODING 70
SWIDTH 600 0
DWIDTH 10 0
BBX 4 27 2 -10
BITMAP
f0
f0
30
30
30
30
30
30
30
30
30
30
30
30
30
30
30
30
30
30
30
30
30
30
30
f0
f0
ENDCHAR
STARTCHAR RBracket4
ENCODING 71
SWIDTH 600 0
DWIDTH 10 0
BBX 4 33 2 -13
BITMAP
f0
f0
30
30
30
30
30
30
30
30
30
30
30
30
30
30
30
30
30
30
30
30
30
30
30
30
30
30
30
30
30
f0
f0
ENDCHAR
STARTCHAR LParen1
ENCODING 72
SWIDTH 600 0
DWIDTH 10 0
BBX 4 13 4 -3
BITMAP
30
60
60
c0
c0
c0
c0
c0
c0
c0
60
60
30
ENDCHAR
STARTCHAR LParen2
ENCODING 73
SWIDTH 600 0
DWIDTH 10 0
BBX 4 21 4 -7
BITMAP
30
60
60
60
c0
c0
c0
c0
c0
c0
c0
c0
c0
c0
c0
c0
c0
60
60
60
30
ENDCHAR
STARTCHAR LParen3
ENCODING 74
SWIDTH 600 0
DWIDTH 10 0
BBX 4 27 4 -10
BITMAP
30
60
60
60
60
c0
c0
c0
c0
c0
c0
c0
c0
c0
c0
c0
c0
c0
c0
c0
c0
c0
60
60
60
60
30
ENDCHAR
STARTCHAR LParen4
ENCODING 75
SWIDTH 600 0
DWIDTH 10 0
BBX 4 33 4 -13
BITMAP
30
60
60
60
60
60
c0
c0
c0
c0
c0
c0
c0
c0
c0
c0
c0
c0
c0
c0
c0
c0
c0
c0
c0
c0
c0
60
60
60
60
60
30
ENDCHAR
STARTCHAR RParen1
ENCODING 76
SWIDTH 600 0
DWIDTH 10 0
BBX 4 13 2 -3
BITMAP
c0
60
60
30
30
30
30
30
30
30
60
60
c0
ENDCHAR
STARTCHAR RParen2
ENCODING 77
SWIDTH 600 0
DWIDTH 10 0
BBX 4 21 2 -7
BITMAP
c0
60
60
60
30
30
30
30
30
30
30
30
30
30
30
30
30
60
60
60
c0
ENDCHAR
STARTCHAR RParen3
ENCODING 78
SWIDTH 600 0
DWIDTH 10 0
BBX 4 27 2 -10
BITMAP
c0
60
60
60
60
30
30
30
30
30
30
30
30
30
30
30
30
30
30
30
30
30
60
60
60
60
c0
ENDCHAR
STARTCHAR RParen4
ENCODING 79
SWIDTH 600 0
DWIDTH 10 0
BBX 4 33 2 -13
BITMAP
c0
60
60
60
60
60
30
30
30
30
30
30
30
30
30
30
30
30
30
30
30
30
30
30
30
30
30
60
60
60
60
60
c0
ENDCHAR
STARTCHAR DblLBracket1
ENCODING 80
SWIDTH 600 0
DWIDTH 10 0
BBX 6 13 3 -3
BITMAP
fc
fc
d8
d8
d8
d8
d8
d8
d8
d8
d8
fc
fc
ENDCHAR
STARTCHAR DblLBracket2
ENCODING 81
SWIDTH 600 0
DWIDTH 10 0
BBX 6 21 3 -7
BITMAP
fc
fc
d8
d8
d8
d8
d8
d8
d8
d8
d8
d8
d8
d8
d8
d8
d8
d8
d8
fc
fc
ENDCHAR
STARTCHAR DblLBracket3
ENCODING 82
SWIDTH 600 0
DWIDTH 10 0
BBX 6 27 3 -10
BITMAP
fc
fc
d8
d8
d8
d8
d8
d8
d8
d8
d8
d8
d8
d8
d8
d8
d8
d8
d8
d8
d8
d8
d8
d8
d8
fc
fc
ENDCHAR
STARTCHAR DblLBracket4
ENCODING 83
SWIDTH 600 0
DWIDTH 10 0
BBX 6 33 3 -13
BITMAP
fc
fc
d8
d8
d8
d8
d8
d8
d8
d8
d8
d8
d8
d8
d8
d8
d8
d8
d8
d8
d8
d8
d8
d8
d8
d8
d8
d8
d8
d8
d8
fc
fc
ENDCHAR
STARTCHAR DblRBracket1
ENCODING 84
SWIDTH 600 0
DWIDTH 10 0
BBX 6 13 1 -3
BITMAP
fc
fc
6c
6c
6c
6c
6c
6c
6c
6c
6c
fc
fc
ENDCHAR
STARTCHAR DblRBracket2
ENCODING 85
SWIDTH 600 0
DWIDTH 10 0
BBX 6 21 1 -7
BITMAP
fc
fc
6c
6c
6c
6c
6c
6c
6c
6c
6c
6c
6c
6c
6c
6c
6c
6c
6c
fc
fc
ENDCHAR
STARTCHAR DblRBracket3
ENCODING 86
SWIDTH 600 0
DWIDTH 10 0
BBX 6 27 1 -10
BITMAP
fc
fc
6c
6c
6c
6c
6c
6c
6c
6c
6c
6c
6c
6c
6c
6c
6c
6c
6c
6c
6c
6c
6c
6c
6c
fc
fc
ENDCHAR
STARTCHAR DblRBracket4
ENCODING 87
SWIDTH 600 0
DWIDTH 10 0
BBX 6 33 1 -13
BITMAP
fc
fc
6c
6c
6c
6c
6c
6c
6c
6c
6c
6c
6c
6c
6c
6c
6c
6c
6c
6c
6c
6c
6c
6c
6c
6c
6c
6c
6c
6c
6c
fc
fc
ENDCHAR
STARTCHAR LAngleBracket1
ENCODING 88
SWIDTH 600 0
DWIDTH 10 0
BBX 6 13 2 -3
BITMAP
0c
18
38
30
70
60
c0
60
70
30
38
18
0c
ENDCHAR
STARTCHAR LAngleBracket2
ENCODING 89
SWIDTH 600 0
DWIDTH 10 0
BBX 5 21 3 -7
BITMAP
18
18
30
30
30
70
60
60
60
c0
c0
c0
60
60
60
70
30
30
30
18
18
ENDCHAR
STARTCHAR LAngleBracket3
ENCODING 90
SWIDTH 600 0
DWIDTH 10 0
BBX 5 27 3 -10
BITMAP
18
18
30
30
30
30
30
60
60
60
60
c0
c0
c0
c0
c0
60
60
60
60
30
30
30
30
30
18
18
ENDCHAR
STARTCHAR LAngleBracket4
ENCODING 91
SWIDTH 600 0
DWIDTH 10 0
BBX 5 33 2 -13
BITMAP
18
18
18
30
30
30
30
30
60
60
60
60
60
60
c0
c0
c0
c0
c0
60
60
60
60
60
60
30
30
30
30
30
18
18
18
ENDCHAR
STARTCHAR RAngleBracket1
ENCODING 92
SWIDTH 600 0
DWIDTH 10 0
BBX 6 13 2 -3
BITMAP
c0
60
70
30
38
18
0c
18
38
30
70
60
c0
ENDCHAR
STARTCHAR RAngleBracket2
ENCODING 93
SWIDTH 600 0
DWIDTH 10 0
BBX 5 21 2 -7
BITMAP
c0
c0
60
60
60
30
30
30
30
18
18
18
30
30
30
30
60
60
60
c0
c0
ENDCHAR
STARTCHAR RAngleBracket3
ENCODING 94
SWIDTH 600 0
DWIDTH 10 0
BBX 5 27 2 -10
BITMAP
c0
c0
e0
60
60
60
60
30
30
30
30
18
18
18
18
18
30
30
30
30
60
60
60
60
e0
c0
c0
ENDCHAR
STARTCHAR RAngleBracket4
ENCODING 95
SWIDTH 600 0
DWIDTH 10 0
BBX 5 33 3 -13
BITMAP
c0
c0
c0
60
60
60
60
60
70
30
30
30
30
30
18
18
18
18
18
30
30
30
30
30
70
60
60
60
60
60
c0
c0
c0
ENDCHAR
STARTCHAR LCeiling1
ENCODING 96
SWIDTH 600 0
DWIDTH 10 0
BBX 4 13 3 -3
BITMAP
f0
f0
c0
c0
c0
c0
c0
c0
c0
c0
c0
c0
c0
ENDCHAR
STARTCHAR LCeiling2
ENCODING 97
SWIDTH 600 0
DWIDTH 10 0
BBX 4 21 3 -7
BITMAP
f0
f0
c0
c0
c0
c0
c0
c0
c0
c0
c0
c0
c0
c0
c0
c0
c0
c0
c0
c0
c0
ENDCHAR
STARTCHAR LCeiling3
ENCODING 98
SWIDTH 600 0
DWIDTH 10 0
BBX 4 28 3 -11
BITMAP
f0
f0
c0
c0
c0
c0
c0
c0
c0
c0
c0
c0
c0
c0
c0
c0
c0
c0
c0
c0
c0
c0
c0
c0
c0
c0
c0
c0
ENDCHAR
STARTCHAR LCeiling4
ENCODING 99
SWIDTH 600 0
DWIDTH 10 0
BBX 4 34 3 -14
BITMAP
f0
f0
c0
c0
c0
c0
c0
c0
c0
c0
c0
c0
c0
c0
c0
c0
c0
c0
c0
c0
c0
c0
c0
c0
c0
c0
c0
c0
c0
c0
c0
c0
c0
c0
ENDCHAR
STARTCHAR LFloor1
ENCODING 100
SWIDTH 600 0
DWIDTH 10 0
BBX 4 13 3 -3
BITMAP
c0
c0
c0
c0
c0
c0
c0
c0
c0
c0
c0
f0
f0
ENDCHAR
STARTCHAR LFloor2
ENCODING 101
SWIDTH 600 0
DWIDTH 10 0
BBX 4 21 3 -7
BITMAP
c0
c0
c0
c0
c0
c0
c0
c0
c0
c0
c0
c0
c0
c0
c0
c0
c0
c0
c0
f0
f0
ENDCHAR
STARTCHAR LFloor3
ENCODING 102
SWIDTH 600 0
DWIDTH 10 0
BBX 4 28 3 -10
BITMAP
c0
c0
c0
c0
c0
c0
c0
c0
c0
c0
c0
c0
c0
c0
c0
c0
c0
c0
c0
c0
c0
c0
c0
c0
c0
c0
f0
f0
ENDCHAR
STARTCHAR LFloor4
ENCODING 103
SWIDTH 600 0
DWIDTH 10 0
BBX 4 34 3 -13
BITMAP
c0
c0
c0
c0
c0
c0
c0
c0
c0
c0
c0
c0
c0
c0
c0
c0
c0
c0
c0
c0
c0
c0
c0
c0
c0
c0
c0
c0
c0
c0
c0
c0
f0
f0
ENDCHAR
STARTCHAR LFlrClngExtens
ENCODING 104
SWIDTH 600 0
DWIDTH 10 0
BBX 2 7 3 -1
BITMAP
c0
c0
c0
c0
c0
c0
c0
ENDCHAR
STARTCHAR LParenTop
ENCODING 105
SWIDTH 600 0
DWIDTH 10 0
BBX 5 13 4 0
BITMAP
18
30
30
60
60
60
c0
c0
c0
c0
c0
c0
c0
ENDCHAR
STARTCHAR LParenExtens
ENCODING 106
SWIDTH 600 0
DWIDTH 10 0
BBX 2 7 4 -1
BITMAP
c0
c0
c0
c0
c0
c0
c0
ENDCHAR
STARTCHAR LParenBottom
ENCODING 107
SWIDTH 600 0
DWIDTH 10 0
BBX 5 14 4 0
BITMAP
c0
c0
c0
c0
c0
c0
c0
40
60
60
60
30
30
18
ENDCHAR
STARTCHAR LBraceTop
ENCODING 108
SWIDTH 600 0
DWIDTH 10 0
BBX 5 10 4 0
BITMAP
38
78
e0
c0
c0
c0
c0
c0
c0
c0
ENDCHAR
STARTCHAR LBraceMiddle
ENCODING 109
SWIDTH 600 0
DWIDTH 10 0
BBX 5 13 1 -3
BITMAP
18
18
18
18
38
70
e0
e0
30
18
18
18
18
ENDCHAR
STARTCHAR LBraceBottom
ENCODING 110
SWIDTH 600 0
DWIDTH 10 0
BBX 5 11 4 0
BITMAP
c0
c0
c0
c0
c0
c0
c0
c0
e0
78
38
ENDCHAR
STARTCHAR BraceExtens
ENCODING 111
SWIDTH 600 0
DWIDTH 10 0
BBX 2 7 4 -1
BITMAP
c0
c0
c0
c0
c0
c0
c0
ENDCHAR
STARTCHAR RCeiling1
ENCODING 112
SWIDTH 600 0
DWIDTH 10 0
BBX 4 13 2 -3
BITMAP
f0
f0
30
30
30
30
30
30
30
30
30
30
30
ENDCHAR
STARTCHAR RCeiling2
ENCODING 113
SWIDTH 600 0
DWIDTH 10 0
BBX 4 21 2 -7
BITMAP
f0
f0
30
30
30
30
30
30
30
30
30
30
30
30
30
30
30
30
30
30
30
ENDCHAR
STARTCHAR RCeiling3
ENCODING 114
SWIDTH 600 0
DWIDTH 10 0
BBX 4 28 2 -11
BITMAP
f0
f0
30
30
30
30
30
30
30
30
30
30
30
30
30
30
30
30
30
30
30
30
30
30
30
30
30
30
ENDCHAR
STARTCHAR RCeiling4
ENCODING 115
SWIDTH 600 0
DWIDTH 10 0
BBX 4 34 2 -14
BITMAP
f0
f0
30
30
30
30
30
30
30
30
30
30
30
30
30
30
30
30
30
30
30
30
30
30
30
30
30
30
30
30
30
30
30
30
ENDCHAR
STARTCHAR RFloor1
ENCODING 116
SWIDTH 600 0
DWIDTH 10 0
BBX 4 13 2 -3
BITMAP
30
30
30
30
30
30
30
30
30
30
30
f0
f0
ENDCHAR
STARTCHAR RFloor2
ENCODING 117
SWIDTH 600 0
DWIDTH 10 0
BBX 4 21 2 -7
BITMAP
30
30
30
30
30
30
30
30
30
30
30
30
30
30
30
30
30
30
30
f0
f0
ENDCHAR
STARTCHAR RFloor3
ENCODING 118
SWIDTH 600 0
DWIDTH 10 0
BBX 4 28 2 -10
BITMAP
30
30
30
30
30
30
30
30
30
30
30
30
30
30
30
30
30
30
30
30
30
30
30
30
30
30
f0
f0
ENDCHAR
STARTCHAR RFloor4
ENCODING 119
SWIDTH 600 0
DWIDTH 10 0
BBX 4 34 2 -13
BITMAP
30
30
30
30
30
30
30
30
30
30
30
30
30
30
30
30
30
30
30
30
30
30
30
30
30
30
30
30
30
30
30
30
f0
f0
ENDCHAR
STARTCHAR RFlrClngExtens
ENCODING 120
SWIDTH 600 0
DWIDTH 10 0
BBX 2 7 4 -1
BITMAP
c0
c0
c0
c0
c0
c0
c0
ENDCHAR
STARTCHAR RParenTop
ENCODING 121
SWIDTH 600 0
DWIDTH 10 0
BBX 5 13 1 0
BITMAP
c0
60
60
30
30
30
18
18
18
18
18
18
18
ENDCHAR
STARTCHAR RParenExtens
ENCODING 122
SWIDTH 600 0
DWIDTH 10 0
BBX 2 7 4 -1
BITMAP
c0
c0
c0
c0
c0
c0
c0
ENDCHAR
STARTCHAR RParenBottom
ENCODING 123
SWIDTH 600 0
DWIDTH 10 0
BBX 5 14 1 0
BITMAP
18
18
18
18
18
18
18
10
30
30
30
60
60
c0
ENDCHAR
STARTCHAR RBraceTop
ENCODING 124
SWIDTH 600 0
DWIDTH 10 0
BBX 5 10 1 0
BITMAP
e0
f0
38
18
18
18
18
18
18
18
ENDCHAR
STARTCHAR RBraceMiddle
ENCODING 125
SWIDTH 600 0
DWIDTH 10 0
BBX 5 13 4 -3
BITMAP
c0
c0
c0
c0
e0
70
38
38
60
c0
c0
c0
c0
ENDCHAR
STARTCHAR RBraceBottom
ENCODING 126
SWIDTH 600 0
DWIDTH 10 0
BBX 5 11 1 0
BITMAP
18
18
18
18
18
18
18
18
38
f0
e0
ENDCHAR
STARTCHAR LBracketTop
ENCODING 128
SWIDTH 600 0
DWIDTH 10 0
BBX 4 3 4 -1
BITMAP
f0
f0
c0
ENDCHAR
STARTCHAR LBracketExtens
ENCODING 129
SWIDTH 600 0
DWIDTH 10 0
BBX 2 7 4 -1
BITMAP
c0
c0
c0
c0
c0
c0
c0
ENDCHAR
STARTCHAR LBracketBottom
ENCODING 130
SWIDTH 600 0
DWIDTH 10 0
BBX 4 3 4 0
BITMAP
c0
f0
f0
ENDCHAR
STARTCHAR RBracketTop
ENCODING 131
SWIDTH 600 0
DWIDTH 10 0
BBX 4 3 2 -1
BITMAP
f0
f0
30
ENDCHAR
STARTCHAR RBracketExtens
ENCODING 132
SWIDTH 600 0
DWIDTH 10 0
BBX 2 7 4 -1
BITMAP
c0
c0
c0
c0
c0
c0
c0
ENDCHAR
STARTCHAR RBracketBottom
ENCODING 133
SWIDTH 600 0
DWIDTH 10 0
BBX 4 3 2 0
BITMAP
30
f0
f0
ENDCHAR
STARTCHAR DblLBracketBottom
ENCODING 134
SWIDTH 600 0
DWIDTH 10 0
BBX 7 3 3 0
BITMAP
d8
fe
fe
ENDCHAR
STARTCHAR DblLBracketExtens
ENCODING 135
SWIDTH 600 0
DWIDTH 10 0
BBX 5 7 3 -1
BITMAP
d8
d8
d8
d8
d8
d8
d8
ENDCHAR
STARTCHAR DblLBracketTop
ENCODING 136
SWIDTH 600 0
DWIDTH 10 0
BBX 7 3 3 -1
BITMAP
fe
fe
d8
ENDCHAR
STARTCHAR DblRBracketBottom
ENCODING 137
SWIDTH 600 0
DWIDTH 10 0
BBX 7 3 1 0
BITMAP
36
fe
fe
ENDCHAR
STARTCHAR DblRBracketExtens
ENCODING 138
SWIDTH 600 0
DWIDTH 10 0
BBX 5 7 3 -1
BITMAP
d8
d8
d8
d8
d8
d8
d8
ENDCHAR
STARTCHAR DblRBracketTop
ENCODING 139
SWIDTH 600 0
DWIDTH 10 0
BBX 7 3 1 -1
BITMAP
fe
fe
36
ENDCHAR
STARTCHAR LeftHook
ENCODING 140
SWIDTH 300 0
DWIDTH 5 0
BBX 5 13 0 -1
BITMAP
f8
f8
c0
c0
c0
c0
c0
c0
c0
c0
c0
c0
c0
ENDCHAR
STARTCHAR HookExt
ENCODING 141
SWIDTH 300 0
DWIDTH 5 0
BBX 5 2 0 10
BITMAP
f8
f8
ENDCHAR
STARTCHAR RightHook
ENCODING 142
SWIDTH 300 0
DWIDTH 5 0
BBX 5 13 0 -1
BITMAP
f8
f8
18
18
18
18
18
18
18
18
18
18
18
ENDCHAR
STARTCHAR Radical1
ENCODING 143
SWIDTH 918 0
DWIDTH 15 0
BBX 15 18 1 -13
BITMAP
001e
001e
0018
0030
0030
0030
0060
1060
7860
f8c0
dcc0
0cc0
0780
0780
0380
0300
0100
0100
ENDCHAR
STARTCHAR Slash1
ENCODING 144
SWIDTH 600 0
DWIDTH 10 0
BBX 6 11 2 -1
BITMAP
0c
1c
18
18
30
30
30
60
60
e0
c0
ENDCHAR
STARTCHAR Slash2
ENCODING 145
SWIDTH 600 0
DWIDTH 10 0
BBX 10 20 0 -6
BITMAP
00c0
01c0
0180
0180
0300
0300
0700
0600
0600
0c00
0c00
1c00
1800
3800
3000
3000
7000
6000
e000
c000
ENDCHAR
STARTCHAR Slash3
ENCODING 146
SWIDTH 600 0
DWIDTH 10 0
BBX 13 28 -2 -10
BITMAP
0018
0038
0030
0030
0060
0060
00e0
00c0
00c0
0180
0180
0380
0300
0300
0600
0600
0e00
0c00
0c00
1800
1800
3800
3000
3000
6000
6000
e000
c000
ENDCHAR
STARTCHAR Slash4
ENCODING 147
SWIDTH 600 0
DWIDTH 10 0
BBX 16 34 -3 -13
BITMAP
0003
0007
0006
0006
000c
000c
001c
0018
0038
0030
0030
0060
0060
00e0
00c0
00c0
0180
0180
0300
0300
0700
0600
0600
0c00
0c00
1c00
1800
3800
3000
3000
6000
6000
e000
c000
ENDCHAR
STARTCHAR BackSlash1
ENCODING 148
SWIDTH 600 0
DWIDTH 10 0
BBX 6 11 2 -1
BITMAP
c0
e0
60
60
30
30
30
18
18
1c
0c
ENDCHAR
STARTCHAR BackSlash2
ENCODING 149
SWIDTH 600 0
DWIDTH 10 0
BBX 10 20 0 -6
BITMAP
c000
e000
6000
7000
3000
3000
3800
1800
1c00
0c00
0c00
0e00
0600
0700
0300
0300
0380
0180
01c0
00c0
ENDCHAR
STARTCHAR BackSlash3
ENCODING 150
SWIDTH 600 0
DWIDTH 10 0
BBX 13 28 -2 -10
BITMAP
c000
e000
6000
6000
3000
3000
3800
1800
1800
0c00
0c00
0e00
0600
0600
0300
0300
0380
0180
0180
00c0
00c0
00e0
0060
0060
0030
0030
0038
0018
ENDCHAR
STARTCHAR BackSlash4
ENCODING 151
SWIDTH 600 0
DWIDTH 10 0
BBX 16 34 -3 -13
BITMAP
c000
e000
6000
6000
3000
3000
3800
1800
1c00
0c00
0c00
0600
0600
0700
0300
0300
0180
0180
00c0
00c0
00e0
0060
0060
0030
0030
0038
0018
001c
000c
000c
0006
0006
0007
0003
ENDCHAR
STARTCHAR ContourIntegral
ENCODING 152
SWIDTH 447 0
DWIDTH 7 0
BBX 10 20 1 -5
BITMAP
0380
07c0
0c80
0c00
0c00
0c00
1e00
6d80
4c80
8c40
8c40
8c40
4c80
6d80
1e00
0c00
0c00
4c00
f800
7000
ENDCHAR
STARTCHAR DblContInteg
ENCODING 153
SWIDTH 723 0
DWIDTH 12 0
BBX 14 20 1 -5
BITMAP
03b8
077c
0cc8
0cc0
0cc0
0cc0
1fe0
6cd8
4cc8
8cc4
8cc4
8cc4
4cc8
6cd8
1fe0
0cc0
0cc0
4cc0
ff80
7700
ENDCHAR
STARTCHAR CntrClckwContInteg
ENCODING 154
SWIDTH 447 0
DWIDTH 7 0
BBX 12 20 1 -5
BITMAP
0380
07c0
0c80
0c00
0c00
0c00
1e00
6d80
4c80
8c40
8ce0
8d50
4c80
6d80
1e00
0c00
0c00
4c00
f800
7000
ENDCHAR
STARTCHAR ClckwContInteg
ENCODING 155
SWIDTH 447 0
DWIDTH 7 0
BBX 12 20 0 -5
BITMAP
00e0
01f0
0320
0300
0300
0300
0780
1b60
1320
2310
7310
ab10
1320
1b60
0780
0300
0300
1300
3e00
1c00
ENDCHAR
STARTCHAR SquareContInteg
ENCODING 156
SWIDTH 447 0
DWIDTH 7 0
BBX 10 20 1 -5
BITMAP
0380
07c0
0c80
0c00
0c00
0c00
ffc0
8c40
8c40
8c40
8c40
8c40
8c40
8c40
ffc0
0c00
0c00
4c00
f800
7000
ENDCHAR
STARTCHAR UnionPlus
ENCODING 157
SWIDTH 764 0
DWIDTH 12 0
BBX 10 14 1 -3
BITMAP
c0c0
c0c0
c0c0
c0c0
c0c0
ccc0
ccc0
ccc0
ffc0
ffc0
ccc0
6d80
7f80
1e00
ENDCHAR
STARTCHAR SquareIntersection
ENCODING 158
SWIDTH 764 0
DWIDTH 12 0
BBX 10 14 1 -3
BITMAP
ffc0
ffc0
c0c0
c0c0
c0c0
c0c0
c0c0
c0c0
c0c0
c0c0
c0c0
c0c0
c0c0
c0c0
ENDCHAR
STARTCHAR SquareUnion
ENCODING 159
SWIDTH 764 0
DWIDTH 12 0
BBX 10 14 1 -3
BITMAP
c0c0
c0c0
c0c0
c0c0
c0c0
c0c0
c0c0
c0c0
c0c0
c0c0
c0c0
c0c0
ffc0
ffc0
ENDCHAR
STARTCHAR LBracketBar1
ENCODING 160
SWIDTH 600 0
DWIDTH 10 0
BBX 3 13 3 -3
BITMAP
60
60
60
60
60
60
e0
60
60
60
60
60
60
ENDCHAR
STARTCHAR LBracketBar2
ENCODING 161
SWIDTH 600 0
DWIDTH 10 0
BBX 3 21 3 -7
BITMAP
60
60
60
60
60
60
60
60
60
60
e0
60
60
60
60
60
60
60
60
60
60
ENDCHAR
STARTCHAR LBracketBar3
ENCODING 162
SWIDTH 600 0
DWIDTH 10 0
BBX 3 27 3 -10
BITMAP
60
60
60
60
60
60
60
60
60
60
60
60
60
e0
60
60
60
60
60
60
60
60
60
60
60
60
60
ENDCHAR
STARTCHAR LBracketBar4
ENCODING 163
SWIDTH 600 0
DWIDTH 10 0
BBX 3 33 3 -13
BITMAP
60
60
60
60
60
60
60
60
60
60
60
60
60
60
60
60
e0
60
60
60
60
60
60
60
60
60
60
60
60
60
60
60
60
ENDCHAR
STARTCHAR RBracketBar1
ENCODING 164
SWIDTH 600 0
DWIDTH 10 0
BBX 3 13 4 -3
BITMAP
c0
c0
c0
c0
c0
c0
e0
c0
c0
c0
c0
c0
c0
ENDCHAR
STARTCHAR RBracketBar2
ENCODING 165
SWIDTH 600 0
DWIDTH 10 0
BBX 3 21 4 -7
BITMAP
c0
c0
c0
c0
c0
c0
c0
c0
c0
c0
e0
c0
c0
c0
c0
c0
c0
c0
c0
c0
c0
ENDCHAR
STARTCHAR RBracketBar3
ENCODING 166
SWIDTH 600 0
DWIDTH 10 0
BBX 3 27 4 -10
BITMAP
c0
c0
c0
c0
c0
c0
c0
c0
c0
c0
c0
c0
c0
e0
c0
c0
c0
c0
c0
c0
c0
c0
c0
c0
c0
c0
c0
ENDCHAR
STARTCHAR RBracketBar4
ENCODING 167
SWIDTH 600 0
DWIDTH 10 0
BBX 3 33 4 -13
BITMAP
c0
c0
c0
c0
c0
c0
c0
c0
c0
c0
c0
c0
c0
c0
c0
c0
e0
c0
c0
c0
c0
c0
c0
c0
c0
c0
c0
c0
c0
c0
c0
c0
c0
ENDCHAR
STARTCHAR ContourIntegral2
ENCODING 168
SWIDTH 655 0
DWIDTH 10 0
BBX 16 35 0 -11
BITMAP
003c
007f
00e2
01c0
0180
0180
0180
0180
0180
0180
0180
07e0
0990
1188
2184
4182
4182
4182
4182
4182
4182
2184
1188
0990
07e0
0180
0180
0180
0180
0180
0180
0300
4700
fe00
3c00
ENDCHAR
STARTCHAR DblContInteg2
ENCODING 169
SWIDTH 1087 0
DWIDTH 17 0
BBX 23 35 0 -11
BITMAP
003c78
007efe
00c584
01c380
018300
018300
018300
018300
018300
018300
018300
07ffc0
0d8320
118310
218308
218308
418304
418304
418304
418304
418304
218308
218308
118310
0d8320
07ffc0
018300
018300
018300
018300
018300
038700
478e00
fefc00
3c7800
ENDCHAR
STARTCHAR CntrClckwContInteg2
ENCODING 170
SWIDTH 655 0
DWIDTH 10 0
BBX 18 35 0 -11
BITMAP
003c00
007f00
00e200
01c000
018000
018000
018000
018000
018000
018000
018000
07e000
099000
118800
218400
418400
418200
418200
418700
418a80
419240
218400
118c00
099800
07e000
018000
018000
018000
018000
018000
018000
030000
470000
fe0000
3c0000
ENDCHAR
STARTCHAR ClckwContInteg2
ENCODING 171
SWIDTH 811 0
DWIDTH 13 0
BBX 18 35 1 -11
BITMAP
000f00
001fc0
003880
007000
006000
006000
006000
006000
006000
006000
006000
01f800
066600
0c6300
086100
106080
106080
386080
546080
926080
086080
086100
046300
036600
01f800
006000
006000
006000
006000
006000
006000
00c000
11c000
3f8000
0f0000
ENDCHAR
STARTCHAR SquareContInteg2
ENCODING 172
SWIDTH 655 0
DWIDTH 10 0
BBX 16 35 0 -11
BITMAP
003c
00ff
00c2
01c0
0180
0180
0180
0180
0180
0180
7ffe
4182
4182
4182
4182
4182
4182
4182
4182
4182
4182
4182
4182
7ffe
0180
0180
0180
0180
0180
0180
0380
0300
4700
fe00
3c00
ENDCHAR
STARTCHAR UnionPlus2
ENCODING 173
SWIDTH 1205 0
DWIDTH 19 0
BBX 17 25 1 -8
BITMAP
c00180
c00180
c00180
c00180
c00180
c00180
c00180
c00180
c00180
c00180
c00180
c0c180
c0c180
c0c180
c0c180
dfff80
dfff80
c0c180
c0c180
e0c380
60c300
700700
3c1e00
1ffc00
07f000
ENDCHAR
STARTCHAR SquareIntersection2
ENCODING 174
SWIDTH 1206 0
DWIDTH 19 0
BBX 17 25 1 -8
BITMAP
ffff80
ffff80
c00180
c00180
c00180
c00180
c00180
c00180
c00180
c00180
c00180
c00180
c00180
c00180
c00180
c00180
c00180
c00180
c00180
c00180
c00180
c00180
c00180
c00180
c00180
ENDCHAR
STARTCHAR SquareUnion2
ENCODING 175
SWIDTH 1206 0
DWIDTH 19 0
BBX 17 25 1 -8
BITMAP
c00180
c00180
c00180
c00180
c00180
c00180
c00180
c00180
c00180
c00180
c00180
c00180
c00180
c00180
c00180
c00180
c00180
c00180
c00180
c00180
c00180
c00180
c00180
ffff80
ffff80
ENDCHAR
STARTCHAR DblLBracketBar1
ENCODING 176
SWIDTH 600 0
DWIDTH 10 0
BBX 6 13 2 -3
BITMAP
6c
6c
6c
6c
6c
6c
ec
6c
6c
6c
6c
6c
6c
ENDCHAR
STARTCHAR DblLBracketBar2
ENCODING 177
SWIDTH 600 0
DWIDTH 10 0
BBX 6 21 2 -7
BITMAP
6c
6c
6c
6c
6c
6c
6c
6c
6c
6c
ec
6c
6c
6c
6c
6c
6c
6c
6c
6c
6c
ENDCHAR
STARTCHAR DblLBracketBar3
ENCODING 178
SWIDTH 600 0
DWIDTH 10 0
BBX 6 27 2 -10
BITMAP
6c
6c
6c
6c
6c
6c
6c
6c
6c
6c
6c
6c
6c
ec
6c
6c
6c
6c
6c
6c
6c
6c
6c
6c
6c
6c
6c
ENDCHAR
STARTCHAR DblLBracketBar4
ENCODING 179
SWIDTH 600 0
DWIDTH 10 0
BBX 6 33 2 -13
BITMAP
6c
6c
6c
6c
6c
6c
6c
6c
6c
6c
6c
6c
6c
6c
6c
6c
ec
6c
6c
6c
6c
6c
6c
6c
6c
6c
6c
6c
6c
6c
6c
6c
6c
ENDCHAR
STARTCHAR DblRBracketBar1
ENCODING 180
SWIDTH 600 0
DWIDTH 10 0
BBX 6 13 3 -3
BITMAP
d8
d8
d8
d8
d8
d8
dc
d8
d8
d8
d8
d8
d8
ENDCHAR
STARTCHAR DblRBracketBar2
ENCODING 181
SWIDTH 600 0
DWIDTH 10 0
BBX 6 21 3 -7
BITMAP
d8
d8
d8
d8
d8
d8
d8
d8
d8
d8
dc
d8
d8
d8
d8
d8
d8
d8
d8
d8
d8
ENDCHAR
STARTCHAR DblRBracketBar3
ENCODING 182
SWIDTH 600 0
DWIDTH 10 0
BBX 6 27 3 -10
BITMAP
d8
d8
d8
d8
d8
d8
d8
d8
d8
d8
d8
d8
d8
dc
d8
d8
d8
d8
d8
d8
d8
d8
d8
d8
d8
d8
d8
ENDCHAR
STARTCHAR DblRBracketBar4
ENCODING 183
SWIDTH 600 0
DWIDTH 10 0
BBX 6 33 3 -13
BITMAP
d8
d8
d8
d8
d8
d8
d8
d8
d8
d8
d8
d8
d8
d8
d8
d8
dc
d8
d8
d8
d8
d8
d8
d8
d8
d8
d8
d8
d8
d8
d8
d8
d8
ENDCHAR
STARTCHAR ContourIntegral3
ENCODING 184
SWIDTH 874 0
DWIDTH 14 0
BBX 22 52 1 -17
BITMAP
0001e0
0007f8
000e1c
001c08
001800
001800
003000
003000
003000
003000
003000
003000
003000
003000
003000
003000
01fe00
073380
0c30c0
103020
203010
403008
403008
c0300c
803004
803004
803004
803004
803004
c0300c
403008
403008
203010
103020
0c30c0
073380
01fe00
003000
003000
003000
003000
003000
003000
003000
003000
003000
006000
006000
40c000
e1c000
7f8000
1e0000
ENDCHAR
STARTCHAR DblContInteg3
ENCODING 185
SWIDTH 1496 0
DWIDTH 24 0
BBX 32 52 1 -17
BITMAP
0003e078
0007f9fe
000e1387
001c0702
00180600
00180600
00300c00
00300c00
00300c00
00300c00
00300c00
00300c00
00300c00
00300c00
00300c00
00300c00
00ffff00
07300ce0
0c300c30
10300c08
20300c04
40300c02
40300c02
c0300c03
80300c01
80300c01
80300c01
80300c01
80300c01
c0300c03
40300c02
40300c02
20300c04
10300c08
0c300c30
07300ce0
00ffff00
00300c00
00300c00
00300c00
00300c00
00300c00
00300c00
00300c00
00300c00
00701c00
00601800
00601800
40c03000
e1c87000
7f9fe000
1e078000
ENDCHAR
STARTCHAR CntrClckwContInteg3
ENCODING 186
SWIDTH 874 0
DWIDTH 14 0
BBX 26 52 1 -17
BITMAP
0001e000
0007f800
000e1c00
001c0800
00180000
00180000
00300000
00300000
00300000
00300000
00300000
00300000
00300000
00300000
00300000
00300000
01fe0000
07338000
0c304000
10302000
20301000
40300800
40300800
c0300400
80300400
80300400
80300e00
80301500
80302480
c0304c40
40300800
40301800
20301000
10302000
0c30c000
07338000
01fe0000
00300000
00300000
00300000
00300000
00300000
00300000
00300000
00300000
00300000
00600000
00600000
40c00000
e1c00000
7f800000
1e000000
ENDCHAR
STARTCHAR ClckwContInteg3
ENCODING 187
SWIDTH 1123 0
DWIDTH 18 0
BBX 26 52 1 -17
BITMAP
00001e00
00007f80
0000e1c0
0001c080
00018000
00018000
00030000
00030000
00030000
00030000
00030000
00030000
00030000
00030000
00030000
00030000
000fe000
00733800
00c30c00
01030200
02030100
04030080
04030080
0c0300c0
08030040
08030040
1c030040
2a030040
49030040
848300c0
04030080
06030080
02030100
01030200
00c30c00
00733800
001fe000
00030000
00030000
00030000
00030000
00030000
00030000
00030000
00030000
00030000
00060000
00060000
040c0000
0e1c0000
07f80000
01e00000
ENDCHAR
STARTCHAR SquareContInteg3
ENCODING 188
SWIDTH 870 0
DWIDTH 14 0
BBX 22 52 1 -17
BITMAP
0001e0
0007f8
000e1c
001c08
001800
001800
003000
003000
003000
003000
003000
003000
003000
003000
003000
003000
fffffc
803004
803004
803004
803004
803004
803004
803004
803004
803004
803004
803004
803004
803004
803004
803004
803004
803004
803004
803004
fffffc
003000
003000
003000
003000
003000
003000
003000
003000
003000
006000
006000
40e000
e1c000
7f8000
1e0000
ENDCHAR
STARTCHAR UnionPlus3
ENCODING 189
SWIDTH 1737 0
DWIDTH 28 0
BBX 26 37 1 -13
BITMAP
c00000c0
c00000c0
c00000c0
c00000c0
c00000c0
c00000c0
c00000c0
c00000c0
c00000c0
c00000c0
c00000c0
c00000c0
c00000c0
c00000c0
c00000c0
c00c00c0
c00c00c0
c00c00c0
c00c00c0
c00c00c0
c00c00c0
c00c00c0
c7fff8c0
c7fff8c0
c00c00c0
c00c00c0
c00c00c0
c00c00c0
600c0180
600c0180
70000380
38000700
1c000e00
0e001c00
07c0f800
01ffe000
007f8000
ENDCHAR
STARTCHAR SquareIntersection3
ENCODING 190
SWIDTH 1736 0
DWIDTH 28 0
BBX 26 37 1 -13
BITMAP
ffffffc0
ffffffc0
c00000c0
c00000c0
c00000c0
c00000c0
c00000c0
c00000c0
c00000c0
c00000c0
c00000c0
c00000c0
c00000c0
c00000c0
c00000c0
c00000c0
c00000c0
c00000c0
c00000c0
c00000c0
c00000c0
c00000c0
c00000c0
c00000c0
c00000c0
c00000c0
c00000c0
c00000c0
c00000c0
c00000c0
c00000c0
c00000c0
c00000c0
c00000c0
c00000c0
c00000c0
c00000c0
ENDCHAR
STARTCHAR SquareUnion3
ENCODING 191
SWIDTH 1736 0
DWIDTH 28 0
BBX 26 37 1 -13
BITMAP
c00000c0
c00000c0
c00000c0
c00000c0
c00000c0
c00000c0
c00000c0
c00000c0
c00000c0
c00000c0
c00000c0
c00000c0
c00000c0
c00000c0
c00000c0
c00000c0
c00000c0
c00000c0
c00000c0
c00000c0
c00000c0
c00000c0
c00000c0
c00000c0
c00000c0
c00000c0
c00000c0
c00000c0
c00000c0
c00000c0
c00000c0
c00000c0
c00000c0
c00000c0
c00000c0
ffffffc0
ffffffc0
ENDCHAR
STARTCHAR DblBar1
ENCODING 192
SWIDTH 600 0
DWIDTH 10 0
BBX 5 13 3 -3
BITMAP
d8
d8
d8
d8
d8
d8
d8
d8
d8
d8
d8
d8
d8
ENDCHAR
STARTCHAR DblBar2
ENCODING 193
SWIDTH 600 0
DWIDTH 10 0
BBX 5 21 3 -7
BITMAP
d8
d8
d8
d8
d8
d8
d8
d8
d8
d8
d8
d8
d8
d8
d8
d8
d8
d8
d8
d8
d8
ENDCHAR
STARTCHAR DblBar3
ENCODING 194
SWIDTH 600 0
DWIDTH 10 0
BBX 5 27 3 -10
BITMAP
d8
d8
d8
d8
d8
d8
d8
d8
d8
d8
d8
d8
d8
d8
d8
d8
d8
d8
d8
d8
d8
d8
d8
d8
d8
d8
d8
ENDCHAR
STARTCHAR DblBar4
ENCODING 195
SWIDTH 600 0
DWIDTH 10 0
BBX 5 33 3 -13
BITMAP
d8
d8
d8
d8
d8
d8
d8
d8
d8
d8
d8
d8
d8
d8
d8
d8
d8
d8
d8
d8
d8
d8
d8
d8
d8
d8
d8
d8
d8
d8
d8
d8
d8
ENDCHAR
STARTCHAR BarExt
ENCODING 196
SWIDTH 600 0
DWIDTH 10 0
BBX 2 6 4 -1
BITMAP
c0
c0
c0
c0
c0
c0
ENDCHAR
STARTCHAR DblBarExt
ENCODING 197
SWIDTH 600 0
DWIDTH 10 0
BBX 5 6 3 -1
BITMAP
d8
d8
d8
d8
d8
d8
ENDCHAR
STARTCHAR OverCircle
ENCODING 198
SWIDTH 600 0
DWIDTH 10 0
BBX 3 3 3 0
BITMAP
e0
a0
e0
ENDCHAR
STARTCHAR Hacek
ENCODING 199
SWIDTH 600 0
DWIDTH 10 0
BBX 7 3 1 1
BITMAP
c6
6c
38
ENDCHAR
STARTCHAR VertBar1
ENCODING 200
SWIDTH 600 0
DWIDTH 10 0
BBX 2 13 4 -3
BITMAP
c0
c0
c0
c0
c0
c0
c0
c0
c0
c0
c0
c0
c0
ENDCHAR
STARTCHAR VertBar2
ENCODING 201
SWIDTH 600 0
DWIDTH 10 0
BBX 2 21 4 -7
BITMAP
c0
c0
c0
c0
c0
c0
c0
c0
c0
c0
c0
c0
c0
c0
c0
c0
c0
c0
c0
c0
c0
ENDCHAR
STARTCHAR nbspace
ENCODING 202
SWIDTH 263 0
DWIDTH 4 0
BBX 0 0 0 0
BITMAP
ENDCHAR
STARTCHAR VertBar3
ENCODING 203
SWIDTH 600 0
DWIDTH 10 0
BBX 2 27 4 -10
BITMAP
c0
c0
c0
c0
c0
c0
c0
c0
c0
c0
c0
c0
c0
c0
c0
c0
c0
c0
c0
c0
c0
c0
c0
c0
c0
c0
c0
ENDCHAR
STARTCHAR VertBar4
ENCODING 204
SWIDTH 600 0
DWIDTH 10 0
BBX 2 33 4 -13
BITMAP
c0
c0
c0
c0
c0
c0
c0
c0
c0
c0
c0
c0
c0
c0
c0
c0
c0
c0
c0
c0
c0
c0
c0
c0
c0
c0
c0
c0
c0
c0
c0
c0
c0
ENDCHAR
STARTCHAR FIntegral
ENCODING 205
SWIDTH 447 0
DWIDTH 7 0
BBX 10 20 1 -5
BITMAP
0380
07c0
0c80
0c00
0c00
0c00
0c00
0d00
1e00
2c00
0c00
0c00
0c00
0c00
0c00
0c00
0c00
4c00
f800
7000
ENDCHAR
STARTCHAR FIntegral2
ENCODING 206
SWIDTH 655 0
DWIDTH 10 0
BBX 16 35 0 -11
BITMAP
003c
007f
00e2
01c0
0180
0180
0180
0180
0180
0180
0180
0180
0180
0188
01f0
0180
0780
1980
0180
0180
0180
0180
0180
0180
0180
0180
0180
0180
0180
0180
0180
0300
4700
fe00
3c00
ENDCHAR
STARTCHAR FIntegral3
ENCODING 207
SWIDTH 870 0
DWIDTH 14 0
BBX 22 52 1 -17
BITMAP
0001e0
0007f8
000e1c
001c08
001800
001800
003000
003000
003000
003000
003000
003000
003000
003000
003000
003000
003000
003000
003000
003000
0030c0
003300
003c00
007000
03b000
043000
003000
003000
003000
003000
003000
003000
003000
003000
003000
003000
003000
003000
003000
003000
003000
003000
003000
003000
003000
007000
006000
006000
40e000
e1c000
7f8000
1e0000
ENDCHAR
STARTCHAR OverDoubleDot
ENCODING 208
SWIDTH 600 0
DWIDTH 10 0
BBX 5 2 2 1
BITMAP
d8
d8
ENDCHAR
STARTCHAR OverTripleDot
ENCODING 209
SWIDTH 600 0
DWIDTH 10 0
BBX 8 2 1 1
BITMAP
db
db
ENDCHAR
STARTCHAR OverLVector
ENCODING 210
SWIDTH 600 0
DWIDTH 10 0
BBX 8 4 1 0
BITMAP
10
30
7f
ff
ENDCHAR
STARTCHAR OverRVector
ENCODING 211
SWIDTH 600 0
DWIDTH 10 0
BBX 8 4 1 0
BITMAP
08
0c
fe
ff
ENDCHAR
STARTCHAR OverLRVector
ENCODING 212
SWIDTH 600 0
DWIDTH 10 0
BBX 11 4 -1 0
BITMAP
1100
3180
7fc0
ffe0
ENDCHAR
STARTCHAR OverLArrow
ENCODING 213
SWIDTH 600 0
DWIDTH 10 0
BBX 8 6 1 -2
BITMAP
20
60
ff
ff
60
20
ENDCHAR
STARTCHAR OverArrowVectExt
ENCODING 214
SWIDTH 200 0
DWIDTH 3 0
BBX 3 2 0 0
BITMAP
e0
e0
ENDCHAR
STARTCHAR OverRArrow
ENCODING 215
SWIDTH 600 0
DWIDTH 10 0
BBX 8 6 1 -2
BITMAP
04
06
ff
ff
06
04
ENDCHAR
STARTCHAR OverLRArrow
ENCODING 216
SWIDTH 600 0
DWIDTH 10 0
BBX 10 6 0 -2
BITMAP
2100
6180
ffc0
ffc0
6180
2100
ENDCHAR
STARTCHAR Integral
ENCODING 217
SWIDTH 447 0
DWIDTH 7 0
BBX 10 20 1 -5
BITMAP
0380
07c0
0c80
0c00
0c00
0c00
0c00
0c00
0c00
0c00
0c00
0c00
0c00
0c00
0c00
0c00
0c00
4c00
f800
7000
ENDCHAR
STARTCHAR Summation
ENCODING 218
SWIDTH 784 0
DWIDTH 13 0
BBX 11 14 1 -3
BITMAP
7fc0
7fc0
30c0
38c0
1c00
0e00
0600
0600
0c00
1800
3060
6060
ffe0
ffe0
ENDCHAR
STARTCHAR Product
ENCODING 219
SWIDTH 821 0
DWIDTH 13 0
BBX 12 14 0 -3
BITMAP
fff0
fff0
3060
3060
3060
3060
3060
3060
3060
3060
3060
3060
fdf0
fdf0
ENDCHAR
STARTCHAR Intersection
ENCODING 220
SWIDTH 764 0
DWIDTH 12 0
BBX 10 14 1 -3
BITMAP
c0c0
c0c0
c0c0
c0c0
c0c0
c0c0
c0c0
c0c0
c0c0
c0c0
c0c0
6180
7f80
1e00
ENDCHAR
STARTCHAR Union
ENCODING 221
SWIDTH 764 0
DWIDTH 12 0
BBX 10 14 1 -3
BITMAP
1e00
7f80
6180
c0c0
c0c0
c0c0
c0c0
c0c0
c0c0
c0c0
c0c0
c0c0
c0c0
c0c0
ENDCHAR
STARTCHAR LogicalOr
ENCODING 222
SWIDTH 692 0
DWIDTH 11 0
BBX 9 9 1 0
BITMAP
c180
4100
6300
2200
3600
3600
1c00
1c00
0800
ENDCHAR
STARTCHAR LogicalAnd
ENCODING 223
SWIDTH 694 0
DWIDTH 11 0
BBX 9 9 1 0
BITMAP
0800
1c00
1c00
3600
3600
2200
6300
4100
c180
ENDCHAR
STARTCHAR Integral1
ENCODING 224
SWIDTH 643 0
DWIDTH 10 0
BBX 16 35 0 -11
BITMAP
003c
00ff
00e2
01c0
0180
0180
0180
0180
0180
0180
0180
0180
0180
0180
0180
0180
0180
0180
0180
0180
0180
0180
0180
0180
0180
0180
0180
0180
0180
0180
0180
0300
4700
fe00
3c00
ENDCHAR
STARTCHAR Integral2
ENCODING 225
SWIDTH 870 0
DWIDTH 14 0
BBX 22 52 1 -17
BITMAP
0001e0
0007f8
000e1c
001c08
001800
001800
003000
003000
003000
003000
003000
003000
003000
003000
003000
003000
003000
003000
003000
003000
003000
003000
003000
003000
003000
003000
003000
003000
003000
003000
003000
003000
003000
003000
003000
003000
003000
003000
003000
003000
003000
003000
003000
003000
003000
007000
006000
006000
40e000
e1c000
7f8000
1e0000
ENDCHAR
STARTCHAR Sum1
ENCODING 226
SWIDTH 1265 0
DWIDTH 20 0
BBX 19 25 0 -8
BITMAP
1fffc0
1fffc0
0c00c0
0e00c0
0600c0
0300c0
038000
01c000
00c000
00e000
007000
003000
002000
004000
00c000
018000
030000
060000
040000
0c0060
180060
300060
600060
ffffe0
7fffe0
ENDCHAR
STARTCHAR Sum2
ENCODING 227
SWIDTH 1819 0
DWIDTH 29 0
BBX 27 37 1 -13
BITMAP
3fffff80
3fffff80
18000180
1c000180
0e000180
06000180
03000180
03800180
01c00000
00c00000
00600000
00700000
00380000
00180000
000c0000
000e0000
00060000
00030000
00030000
00060000
000e0000
001c0000
00380000
00300000
00600000
00c00000
01c00000
03800000
03000060
06000060
0c000060
1c000060
38000060
30000060
60000060
ffffffe0
ffffffe0
ENDCHAR
STARTCHAR Product1
ENCODING 228
SWIDTH 1223 0
DWIDTH 20 0
BBX 20 25 0 -8
BITMAP
fffff0
fffff0
3000c0
3000c0
3000c0
3000c0
3000c0
3000c0
3000c0
3000c0
3000c0
3000c0
3000c0
3000c0
3000c0
3000c0
3000c0
3000c0
3000c0
3000c0
3000c0
3000c0
3000c0
fc03f0
fc03f0
ENDCHAR
STARTCHAR Product2
ENCODING 229
SWIDTH 1645 0
DWIDTH 26 0
BBX 24 37 1 -13
BITMAP
ffffff
ffffff
30000c
30000c
30000c
30000c
30000c
30000c
30000c
30000c
30000c
30000c
30000c
30000c
30000c
30000c
30000c
30000c
30000c
30000c
30000c
30000c
30000c
30000c
30000c
30000c
30000c
30000c
30000c
30000c
30000c
30000c
30000c
30000c
30000c
fc003f
fc003f
ENDCHAR
STARTCHAR Union1
ENCODING 230
SWIDTH 1205 0
DWIDTH 19 0
BBX 17 25 1 -8
BITMAP
c00180
c00180
c00180
c00180
c00180
c00180
c00180
c00180
c00180
c00180
c00180
c00180
c00180
c00180
c00180
c00180
c00180
c00180
c00180
e00380
600300
700700
3c1e00
1ffc00
07f000
ENDCHAR
STARTCHAR Union2
ENCODING 231
SWIDTH 1737 0
DWIDTH 28 0
BBX 26 37 1 -13
BITMAP
c00000c0
c00000c0
c00000c0
c00000c0
c00000c0
c00000c0
c00000c0
c00000c0
c00000c0
c00000c0
c00000c0
c00000c0
c00000c0
c00000c0
c00000c0
c00000c0
c00000c0
c00000c0
c00000c0
c00000c0
c00000c0
c00000c0
c00000c0
c00000c0
c00000c0
c00000c0
c00000c0
c00000c0
60000180
60000180
70000380
38000700
1c000e00
0e001c00
07c0f800
01ffe000
007f8000
ENDCHAR
STARTCHAR Intersect1
ENCODING 232
SWIDTH 1205 0
DWIDTH 19 0
BBX 17 25 1 -8
BITMAP
07f000
0ffc00
3c1e00
700700
600300
e00380
c00180
c00180
c00180
c00180
c00180
c00180
c00180
c00180
c00180
c00180
c00180
c00180
c00180
c00180
c00180
c00180
c00180
c00180
c00180
ENDCHAR
STARTCHAR Intersect2
ENCODING 233
SWIDTH 1737 0
DWIDTH 28 0
BBX 26 37 1 -13
BITMAP
007f8000
01ffe000
07c07800
0e001c00
1c000e00
38000700
70000380
60000180
60000180
c00000c0
c00000c0
c00000c0
c00000c0
c00000c0
c00000c0
c00000c0
c00000c0
c00000c0
c00000c0
c00000c0
c00000c0
c00000c0
c00000c0
c00000c0
c00000c0
c00000c0
c00000c0
c00000c0
c00000c0
c00000c0
c00000c0
c00000c0
c00000c0
c00000c0
c00000c0
c00000c0
c00000c0
ENDCHAR
STARTCHAR Or1
ENCODING 234
SWIDTH 861 0
DWIDTH 14 0
BBX 13 14 0 -3
BITMAP
c018
4010
6030
2020
3060
3060
1040
18c0
0880
0d80
0500
0700
0700
0200
ENDCHAR
STARTCHAR Or2
ENCODING 235
SWIDTH 1333 0
DWIDTH 21 0
BBX 21 25 0 -8
BITMAP
c00018
400010
600030
600030
300060
300060
100040
1800c0
1800c0
0c0180
0c0180
040100
060300
060300
030600
030600
010c00
018c00
018c00
00d800
00d800
007000
007000
007000
002000
ENDCHAR
STARTCHAR And1
ENCODING 236
SWIDTH 861 0
DWIDTH 14 0
BBX 13 14 0 -3
BITMAP
0200
0700
0700
0500
0d80
0880
18c0
1040
3060
3060
2020
6030
4010
c018
ENDCHAR
STARTCHAR And2
ENCODING 237
SWIDTH 1333 0
DWIDTH 21 0
BBX 21 25 0 -8
BITMAP
002000
007000
007000
007000
00d800
00d800
018c00
018c00
010c00
030600
030600
060300
060300
040100
0c0180
0c0180
1800c0
1800c0
100040
300060
300060
600030
600030
400010
c00018
ENDCHAR
STARTCHAR SmallVee
ENCODING 238
SWIDTH 600 0
DWIDTH 10 0
BBX 7 5 1 1
BITMAP
c6
6c
6c
38
10
ENDCHAR
STARTCHAR SmallWedge
ENCODING 239
SWIDTH 600 0
DWIDTH 10 0
BBX 7 5 1 1
BITMAP
10
38
6c
6c
c6
ENDCHAR
STARTCHAR DoubleGrave
ENCODING 240
SWIDTH 600 0
DWIDTH 10 0
BBX 7 2 2 1
BITMAP
cc
66
ENDCHAR
STARTCHAR Breve
ENCODING 241
SWIDTH 600 0
DWIDTH 10 0
BBX 7 3 1 0
BITMAP
c6
6c
38
ENDCHAR
STARTCHAR DownBreve
ENCODING 242
SWIDTH 600 0
DWIDTH 10 0
BBX 7 3 1 0
BITMAP
38
7c
c6
ENDCHAR
STARTCHAR OverTilde
ENCODING 243
SWIDTH 600 0
DWIDTH 10 0
BBX 7 3 1 1
BITMAP
72
fe
9c
ENDCHAR
STARTCHAR Tilde2
ENCODING 244
SWIDTH 734 0
DWIDTH 12 0
BBX 11 3 0 0
BITMAP
3c20
7fe0
c3c0
ENDCHAR
STARTCHAR Tilde3
ENCODING 245
SWIDTH 1102 0
DWIDTH 18 0
BBX 18 4 0 0
BITMAP
1f0080
7fe1c0
e0ff80
403e00
ENDCHAR
STARTCHAR Tilde4
ENCODING 246
SWIDTH 1469 0
DWIDTH 24 0
BBX 24 4 0 0
BITMAP
0fe002
3ffc0f
f03ffc
4007f0
ENDCHAR
STARTCHAR BackQuote
ENCODING 247
SWIDTH 600 0
DWIDTH 10 0
BBX 4 4 3 5
BITMAP
70
60
60
c0
ENDCHAR
STARTCHAR DblBackQuote
ENCODING 248
SWIDTH 76 0
DWIDTH 10 0
BBX 7 4 1 5
BITMAP
7e
6c
6c
d8
ENDCHAR
STARTCHAR Quote
ENCODING 249
SWIDTH 69 0
DWIDTH 10 0
BBX 4 4 2 5
BITMAP
e0
60
60
30
ENDCHAR
STARTCHAR DblQuote
ENCODING 250
SWIDTH 156 0
DWIDTH 10 0
BBX 7 4 1 5
BITMAP
fc
6c
6c
36
ENDCHAR
STARTCHAR VertBar
ENCODING 251
SWIDTH 156 0
DWIDTH 10 0
BBX 2 11 4 -1
BITMAP
c0
c0
c0
c0
c0
c0
c0
c0
c0
c0
c0
ENDCHAR
STARTCHAR DblVertBar
ENCODING 252
SWIDTH 0 0
DWIDTH 10 0
BBX 5 11 3 -1
BITMAP
d8
d8
d8
d8
d8
d8
d8
d8
d8
d8
d8
ENDCHAR
STARTCHAR VertBarExten
ENCODING 253
SWIDTH 111 0
DWIDTH 10 0
BBX 2 9 4 -1
BITMAP
c0
c0
c0
c0
c0
c0
c0
c0
c0
ENDCHAR
STARTCHAR DblVertBarExten
ENCODING 254
SWIDTH 2 0
DWIDTH 10 0
BBX 5 9 3 -1
BITMAP
d8
d8
d8
d8
d8
d8
d8
d8
d8
ENDCHAR
STARTCHAR Coproduct
ENCODING 255
SWIDTH 0 0
DWIDTH 10 0
BBX 8 9 1 0
BITMAP
e7
e7
66
66
66
66
66
ff
ff
ENDCHAR
ENDFONT
